<?xml version="1.0"?><svg width="610" height="200" xmlns="http://www.w3.org/2000/svg">
 <title>London Skyline</title>

 <g>
  <title>Layer 1</title>
  <g display="inline" id="layer12">
   <rect fill="#000000" fill-rule="nonzero" id="rect2693" y="139.506273" x="1.01209" height="59.784179" width="608.96783"/>
   <rect fill="#000000" fill-rule="nonzero" id="rect3848" y="116.999436" x="1.012239" height="31.413473" width="608.962032"/>
  </g>
  <g display="inline" id="layer11">
   <g display="inline" id="g3228"/>
   <g id="g3909">
    <path fill="#000000" fill-rule="evenodd" stroke="#000000" stroke-width="0.129585px" id="path3094" d="m606.04657,132.138092l-0.043823,-14.125595c0,0 1.20813,-0.161079 1.852417,-0.912804c0,-0.107384 0,-37.424324 0,-37.424324l-12.782715,-0.000801c0,0 0,37.316925 0,37.424309c0.644348,0.751717 1.852417,0.912796 1.852417,0.912796l0,13.933456c2.112915,1.832901 7.006897,1.384186 9.121643,0.192963l0.000061,0z"/>
    <path fill="#000000" fill-rule="evenodd" stroke="#000000" stroke-width="0.129585px" id="path3096" d="m598.933411,79.700043l-0.040283,-19.62471l5.087585,0l0.013428,19.620117l-5.06073,0.004593z"/>
    <path fill="#000000" fill-rule="evenodd" stroke="#000000" stroke-width="0.129585px" id="path3098" d="m595.609009,76.306213l0,1.385796l11.731812,0l0,-1.40477l-11.731812,0.018959l0,0.000015z"/>
    <path fill="#000000" fill-rule="evenodd" stroke="#000000" stroke-width="0.129585px" id="path3100" d="m595.665955,72.357643l0,1.385803l11.731812,0l0,-1.404778l-11.731812,0.018974l0,0z"/>
    <path fill="#000000" fill-rule="evenodd" stroke="#000000" stroke-width="0.129585px" id="path3102" d="m595.590027,68.409073l0,1.385811l11.731812,0l0,-1.404793l-11.731812,0.018982l0,0z"/>
    <path fill="#000000" fill-rule="evenodd" stroke="#000000" stroke-width="0.129585px" id="path3104" d="m595.703918,64.441544l0,1.385788l3.315002,0l8.416809,0l0,-1.40477l-11.731812,0.018982z"/>
    <path fill="#000000" fill-rule="evenodd" stroke="#000000" stroke-width="0.129585px" id="path3106" d="m595.609009,60.417023l0,1.385811l11.731812,0l0,-1.404793l-11.731812,0.018982z"/>
    <path fill="#000000" fill-rule="evenodd" stroke="#000000" stroke-width="0.129585px" id="path3108" d="m604.075806,60.052979c0,0 3.189209,-0.113892 3.796692,-0.531532c-0.018982,-0.98716 -0.018982,-1.006126 -0.018982,-1.006126c0,0 -0.189819,-0.189842 -0.759338,-0.28476c-0.056885,0.018967 -0.038025,-0.24678 -0.038025,-0.24678l0.531555,0l0.246765,-0.24678l0,-4.024509l0.341736,0c0,0 0.212524,-0.116161 0.286316,-0.310791c0,-0.221489 0,-5.228397 0,-5.228397c0,0 -0.28186,-0.32888 -0.651001,-0.442982c0.020081,-0.020149 0,-3.5639 0,-3.5639c-0.404236,-0.662689 -2.227722,-0.903568 -3.449829,-1.067169l0.007019,-0.275169c0,0 1.060425,-0.073841 1.248352,-0.302021c0.020081,0 0.389282,-0.328869 0.409424,-0.46312c0.013428,-0.02684 0,-2.44976 0,-2.44976c-0.142395,-0.24678 -1.235657,-0.67807 -2.234985,-0.744991l-4.65155,0.003403c-0.99939,0.066929 -2.09259,0.498207 -2.234985,0.744987c0,0 -0.013428,2.422932 0,2.449772c0.020081,0.134228 0.389282,0.463108 0.409424,0.463108c0.187927,0.228199 1.248352,0.302021 1.248352,0.302021l0.007019,0.275181c-1.222046,0.163578 -3.045593,0.404469 -3.449829,1.067169c0,0 -0.020081,3.543751 0,3.563889c-0.369141,0.114101 -0.651001,0.44297 -0.651001,0.44297c0,0 0,5.006912 0,5.228401c0.073792,0.194641 0.286316,0.310799 0.286316,0.310799l0.341736,0l0,4.024498l0.246765,0.246803l0.531555,0c0,0 0.018982,0.26577 -0.038025,0.24678c-0.569519,0.09494 -0.759338,0.284737 -0.759338,0.284737c0,0 0,0.01899 -0.018982,1.006134c0.607483,0.417648 3.796692,0.531548 3.796692,0.531548l5.220642,-0.003387l-0.000488,-0.000023z"/>
    <path fill="#000000" fill-rule="evenodd" stroke="#000000" stroke-width="0.129585px" id="path3110" d="m595.971802,76.27845l0,-0.268463l-0.697998,0l-0.120789,0.402702l-0.80542,0.01342l-0.161072,-0.751717l0,-0.778549l0.147644,-0.510094l0.818848,-0.02684l0.201355,0.268463l0,1.140984l0.912781,0.02684l0.013428,0.44297l-0.308716,0.04026l-0.000061,0.000023z"/>
    <path fill="#000000" fill-rule="evenodd" stroke="#000000" stroke-width="0.129585px" id="path3112" d="m595.739807,72.289673l0,-0.268486l-0.697998,0l-0.120789,0.40271l-0.80542,0.01342l-0.161072,-0.751709l0,-0.778549l0.147644,-0.510101l0.818848,-0.02684l0.201355,0.268456l0,1.140984l0.912781,0.026863l0.013428,0.44297l-0.308716,0.040283l-0.000061,0z"/>
    <path fill="#000000" fill-rule="evenodd" stroke="#000000" stroke-width="0.129585px" id="path3114" d="m595.904724,68.398941l0,-0.268448l-0.697998,0l-0.120789,0.402687l-0.80542,0.01342l-0.161072,-0.751709l0,-0.778564l0.147644,-0.510086l0.818848,-0.02684l0.201355,0.268463l0,1.140984l0.912781,0.026863l0.013428,0.442963l-0.308716,0.040268l-0.000061,0z"/>
    <path fill="#000000" fill-rule="evenodd" stroke="#000000" stroke-width="0.129585px" id="path3116" d="m597.087646,64.416267l0,-0.268471l-0.697998,0l-0.120789,0.40271l-0.80542,0.013412l-0.161072,-0.751717l0,-0.778542l0.147644,-0.510094l0.818848,-0.026848l0.201355,0.268448l0,1.141006l0.912781,0.026848l0.013428,0.442947l-0.308716,0.040298l-0.000061,0z"/>
    <path fill="#000000" fill-rule="evenodd" stroke="#000000" stroke-width="0.129585px" id="path3118" d="m606.549438,70.251373l-0.966492,0c0,0 -1.167847,0.845665 -0.040283,2.013496c0.026794,-0.040283 1.26178,0.053703 1.26178,0.053703c0,0 1.073853,-1.24839 -0.255066,-2.0672l0.000061,0z"/>
    <path fill="#000000" fill-rule="evenodd" stroke="#000000" stroke-width="0.129585px" id="path3120" d="m606.618225,74.36142l-0.966492,0c0,0 -1.167847,0.845657 -0.040283,2.013504c0.026794,-0.040291 1.26178,0.053673 1.26178,0.053673c0,0 1.073853,-1.24836 -0.255066,-2.067177l0.000061,0z"/>
    <path fill="#000000" fill-rule="evenodd" stroke="#000000" stroke-width="0.116567px" id="path3122" d="m606.603088,66.495728l-0.777161,0c0,0 -0.939087,0.851006 -0.03241,2.026184c0.021606,-0.040512 1.014648,0.054031 1.014648,0.054031c0,0 0.863525,-1.256226 -0.205078,-2.080215z"/>
    <path fill="#000000" fill-rule="evenodd" stroke="#000000" stroke-width="0.110403px" id="path3124" d="m605.447693,63.170532l-0.695068,0c0,0 -0.839905,0.853531 -0.028992,2.032196c0.019287,-0.040649 0.907471,0.054184 0.907471,0.054184c0,0 0.772339,-1.259949 -0.183411,-2.08638z"/>
    <path fill="#000000" fill-rule="evenodd" stroke="#000000" stroke-width="0.121836px" id="path3126" d="m597.779175,66.821083l-0.851196,0c0,0 -1.028503,0.848854 -0.035522,2.021057c0.023621,-0.040421 1.111267,0.053879 1.111267,0.053879c0,0 0.94574,-1.253052 -0.224609,-2.074936l0.000061,0z"/>
    <path fill="#000000" fill-rule="evenodd" stroke="#000000" stroke-width="0.133991px" id="path3128" d="m598.055786,70.642853l-0.964539,0c0,0 -1.165466,0.905991 -0.040222,2.157127c0.026794,-0.043137 1.259216,0.057518 1.259216,0.057518c0,0 1.071655,-1.337425 -0.254517,-2.214661l0.000061,0.000015z"/>
    <path fill="#000000" fill-rule="evenodd" stroke="#000000" stroke-width="0.126326px" id="path3130" d="m597.864502,74.492653l-0.917053,0c0,0 -1.108093,0.847 -0.038208,2.016701c0.025513,-0.040344 1.197266,0.05378 1.197266,0.05378c0,0 1.018921,-1.250366 -0.242004,-2.07048z"/>
    <path fill="#000000" fill-rule="evenodd" stroke="#000000" stroke-width="0.142933px" id="path3132" d="m599.629578,28.887249l3.691589,0.049171l-0.120361,1.360359l-3.597961,0l0.026794,-1.409531l-0.000061,0z"/>
    <path fill="#000000" fill-rule="evenodd" stroke="#000000" stroke-width="0.186913px" id="path3134" d="m603.057556,31.71471l-3.070313,0l0.002014,1.365559l3.043945,0l0.024109,-1.365559l0.000244,0z"/>
    <path fill="#000000" fill-rule="evenodd" stroke="#000000" stroke-width="0.201345px" id="path3136" d="m600.182373,34.6348l2.58606,0l0,1.498779l-2.579041,0l-0.007019,-1.498779z"/>
    <path fill="#000000" fill-rule="evenodd" stroke="#000000" stroke-width="0.199956px" id="path3138" d="m600.557068,37.31879l1.863098,0l0,0.828991l-1.876038,0l0.012878,-0.828991l0.000061,0z"/>
    <path fill="none" stroke="#000000" stroke-width="0.323962" stroke-miterlimit="4" id="path3140" d="m600.440308,38.937191l-0.882751,-9.985321l3.815674,0.056961l-0.892212,9.93787l-2.04071,-0.00951z"/>
    <path fill="none" stroke="#000000" stroke-width="0.311004" stroke-miterlimit="4" id="path3142" d="m601.560364,28.819l0,-6.853041"/>
   </g>
  </g>
  <g display="inline" id="layer10">
   <path fill="#000000" fill-rule="evenodd" stroke="#000000" stroke-width="0.163531" stroke-miterlimit="4" id="path3090" d="m588.588867,126.636566c-0.166382,0.594757 -0.893372,1.430328 -0.956604,1.48053c-5.033325,4.000946 -18.340576,4.67598 -25.574219,-0.495758c-0.285828,-0.20433 -1.568726,-1.822678 -1.568726,-1.86554c-1.30011,-11.123428 -9.132202,-79.204029 12.659973,-105.558437c-0.156494,-0.15657 2.349182,-0.15657 2.349182,-0.15657c22.97113,23.146709 14.20697,106.465816 13.090271,106.595776l0.000122,0z"/>
  </g>
  <g display="inline" id="layer9">
   <path fill="#000000" fill-rule="evenodd" stroke="#000000" stroke-width="0.015306" stroke-miterlimit="4" id="path3293" d="m467.834473,126.675507l0,-2.309601l0.256592,-0.256638l-0.012817,-7.50621c0,0 -0.37207,-0.461914 -0.295105,-0.53891c-0.025696,-0.089798 -0.025696,-0.577393 -0.025696,-0.577393l0.372131,0l0,-7.005798l-0.346436,-0.24379l0,-0.218124l0.346436,0.012794l-0.346436,-0.410591l0,-0.384933l-0.455017,-0.26268l0,-0.340385l0.429321,-0.29512l0,-0.449089l0.295105,-0.205299l0,-1.64238l-0.26947,0l-0.148743,-0.257652l0,-0.242767l0.157776,-0.157768l1.351074,0l0,1.20993l0.26947,0l0,0.205292l0.551758,0l0,-0.205292l0.757019,0l0,0.256615l0.436279,0l0,0.243797l0.37207,0l0,0.153976l0.264221,0.070801l0,-0.904831l0.21051,-0.384933l0.179626,-0.179649l1.809204,0l0,0.205299l2.117126,0l0,-0.269455l1.988831,0l0,0.25663l5.183777,0l0,-0.307953l1.963135,0l0,0.307953l5.247925,0l0,-0.346443l1.924683,0l0,0.346443l5.055481,0l0,-0.333611l2.296753,0l0,0.29512l1.834839,0l0,-0.282288l-0.282288,0l0,-0.500412l-0.205322,0l0,-0.423431l0.564575,0l0,-3.239853l-0.37207,0l0,-0.917427l0.166809,0l0,-6.409599l0,-1.295494l-0.449097,-0.449089l0,-0.391335l0.59021,-0.224571l0,-1.007233l-0.162048,-0.043396l0,-0.25811l0.713806,-0.449097l1.052185,-0.314369l1.12915,0l0,-2.925499l-0.430725,-0.331146l0,-0.54438l0.443542,0l0,-0.176926l0.187012,0l-0.035828,-0.133774l-0.14563,0l-0.173523,-0.173553l0,-0.20076l0.491943,-0.284019l0,-0.644691l0.216919,0c0.353577,-2.982986 2.122559,-8.738457 7.427246,-10.611336l0,-0.409065l0.230286,0l0,-0.254036c0,0 -0.411133,0.042702 -0.468567,-0.234795c0,-0.072594 -0.022583,-0.305099 0.243347,-0.412048l0.161743,-0.011658l0,-0.866104l0.134705,0l0,-0.468315l0.1604,0l0,0.423416l0.339966,0l0,-0.744186l-0.186035,0l0,-0.449104l0.359253,0l0,-3.259109l-0.397766,-0.320778l0,-0.256622l0.433228,0l0,-1.021988l0.408264,0.408279l0,0.499023l0.317566,0l0,-1.850891l-0.417358,0l0,-0.32663l0.235901,0l0,-0.998032c0,0 0.535339,-0.843788 0.861938,-0.843788l0,-0.308472l-0.28125,-0.145172l0,-0.145164l0.308472,0l0,-0.784561l0.23761,0c0,0 -0.202087,-0.137932 -0.224548,-0.269455l-0.005981,-0.301514c0,0 0.083374,-0.147575 0.179626,-0.153984c0.109009,-0.007301 0.128296,-0.006401 0.128296,-0.006401l0,-0.167122c-0.925232,-0.453659 -0.198547,-1.319199 -0.005981,-1.229393l0.02533,-1.599564l0.15509,-0.866112l0.15509,0.866112l0.02533,1.599564c0.192444,-0.089813 0.919189,0.775734 -0.005981,1.229393l0,0.167122c0,0 0.019287,-0.000847 0.128296,0.006401c0.096191,0.006401 0.179626,0.153984 0.179626,0.153984l-0.005981,0.301514c-0.022522,0.131531 -0.224548,0.269455 -0.224548,0.269455l0.23761,0l0,0.784561l0.308472,0l0,0.145164l-0.28125,0.145172l0,0.308472c0.32666,0 0.861938,0.843788 0.861938,0.843788l0,0.998032l0.235901,0l0,0.32663l-0.417358,0l0,1.850891l0.317566,0l0,-0.499023l0.408264,-0.408279l0,1.021988l0.433228,0l0,0.256622l-0.397766,0.320778l0,3.259109l0.359253,0l0,0.449104l-0.186035,0l0,0.744186l0.340027,0l0,-0.423416l0.1604,0l0,0.468315l0.134705,0l0,0.866104l0.161743,0.011658c0.265869,0.106949 0.243347,0.339462 0.243347,0.412048c-0.057495,0.277496 -0.468567,0.234795 -0.468567,0.234795l0,0.254036l0.230347,0l0,0.409065c5.304749,1.872879 7.073669,7.628349 7.427307,10.611359l0.216919,0l0,0.644676l0.491943,0.284019l0,0.20076l-0.173523,0.173553l-0.14563,0l-0.035828,0.133781l0.187012,0l0,0.176918l0.443542,0l0,0.54438l-0.430725,0.331154l0,2.925484l1.12915,0l1.052185,0.314369l0.713806,0.449097l0,0.25811l-0.162048,0.043404l0,1.007233l0.59021,0.224571l0,0.39135l-0.449097,0.449081l0,1.295486l0,6.409599l0.166809,0l0,0.917419l-0.37207,0l0,3.239861l0.564575,0l0,0.423431l-0.205322,0l0,0.500412l-0.282288,0l0,0.200951l2.554321,0l0,-0.372765l2.295959,0l0,0.373085l5.089355,0l0,-0.325249l1.970703,0l0,0.363518l5.290222,0l0,-0.353958l2.008972,0l0,0.334824l4.660461,0l0,-0.32061l2.529907,0l0,0.29763l10.119629,0l0,-1.853447l-0.297668,-0.223228l-0.013489,-1.197311l0.304382,-0.135292l0,-0.459976l-0.297668,0l0,-1.542313l0.899658,0l0,-0.60881l0.443054,0.007011l-0.277405,-0.3731l-0.143494,-0.172203l-0.019104,-0.38266l0.321655,0.008011l0,-0.487061l0.14209,0l0,-4.139816l-0.243347,-0.140533l-0.363831,-0.176628l0,-0.589302l0.607239,0l0,-0.899681l0.175903,0l0,-0.629089l0.290833,0l0.150513,0l0,-0.780556l-0.181763,0l0,-0.26783l0.181763,0l0,-0.334854l0.286987,0l0,0.325272l0.162659,0l0,0.277412l-0.162659,0l0,0.449615l0.229614,0l0.267883,-0.430466l0,-1.358444l-0.200867,0l0,-0.443878l0.306091,0l0,-0.455368l0.229614,0l0,-0.315681l-0.220032,0l0,-0.344391l0.200867,0l0,-0.325272l0.153076,0l-0.03302,-0.123199l0.195618,0l-0.017273,-0.587189l0.284119,-0.385582l0,-0.750328l0.517639,-0.84185l0.105225,0c0,0 0.047791,-0.459167 0.277405,-0.497452c0,-0.019127 0.017517,-0.335968 0.017517,-0.335968c-0.202942,-0.027092 -0.29541,-0.395187 -0.011292,-0.516937c0.002014,0.00058 -0.008972,-0.310303 -0.007019,-0.311172c-0.328857,-0.102829 -0.330933,-0.645409 0.120728,-0.660507c0.45166,0.015938 0.449524,0.55851 0.120728,0.661369c0.002014,0.00087 -0.008972,0.311707 -0.007019,0.31115c0.284119,0.121758 0.191589,0.489868 -0.011292,0.51693c0,0 0.017517,0.316849 0.017517,0.335999c0.229614,0.038239 0.277405,0.497429 0.277405,0.497429l0.105225,0l0.517639,0.84185l0,0.750343l0.284119,0.385567l-0.017273,0.587189l0.195679,0l-0.03302,0.123215l0.153076,0l0,0.325256l0.200928,0l0,0.344391l-0.220032,0l0,0.315689l0.229614,0l0,0.45536l0.306091,0l0,0.443893l-0.200928,0l0,1.358429l0.267883,0.430489l0.229614,0l0,-0.449631l-0.162659,0l0,-0.27742l0.162659,0l0,-0.325249l0.286987,0l0,0.334801l0.181763,0l0,0.26786l-0.181763,0l0,0.780579l0.150513,0l0.290894,0l0,0.629082l0.175842,0l0,0.899666l0.607239,0l0,0.58931l-0.363831,0.17662l-0.243408,0.140533l0,4.139839l0.142029,0l0,0.487038l0.321716,-0.007996l-0.019104,0.38266l-0.143494,0.172195l-0.277405,0.3731l0.443054,-0.006996l0,0.60881l0.899658,0l0,1.54229l-0.297668,0l0,0.459976l0.304382,0.135292l-0.013489,1.197311l-0.297668,0.223228l0,1.494583l1.218262,0l0,-0.346024c0,0 -0.220032,-0.19133 -0.200867,-0.334816c0,0.038284 0.005005,-0.588341 0.005005,-0.588341c0,0 0.047791,-0.196114 0.153076,-0.248741c-0.014282,-0.014297 0,-1.286682 0,-1.286682l0.138733,-0.133919c0,0 -0.072327,-0.261551 0.16449,-0.271698c-0.013489,0 0.248596,-0.008003 0.16571,0.311157c0,-0.004997 0.238953,0.13752 0.238953,0.13752l0,0.344391l-0.100464,0l0,0.148277l0.162659,0l-0.005005,1.18145l-0.153076,0l0,1.08577l0,1.868156l0.298096,0.1894l0,1.007904l-0.148804,0l0,0.588516l-0.162354,0l0,5.54686l0.473511,0l0,0.913208l0.317932,0l0,0.61557l-0.155579,0l0,0.277336l-0.473511,0l0,0.906448l0.182617,0l0,0.649384l-0.175842,0l0,0.568222l-0.162354,0l0,7.102692l0.311157,0l0,0.290863l0.169128,0l0,0.169113l0.155579,0l0,2.414917l-108.792419,0.009003l-0.000977,-0.000412z"/>
  </g>
  <g display="inline" id="layer8">
   <g display="inline" id="g3281">
    <g fill="#1a1a1a" display="inline" id="g3293">
     <path fill="#1a1a1a" fill-rule="nonzero" id="path3295" d="m457.092346,83.091667c0,0.356369 -0.341431,0.645271 -0.762512,0.645271c-0.421143,0 -0.762573,-0.288902 -0.762573,-0.645271c0,-0.356377 0.341431,-0.645264 0.762573,-0.645264c0.421082,0 0.762512,0.288887 0.762512,0.645264z"/>
     <path fill="#1a1a1a" fill-rule="evenodd" stroke="#1a1a1a" stroke-width="2.442343" stroke-miterlimit="4" id="path3297" d="m456.237732,82.616074l0.048279,-2.047112l0.077087,2.043594l-0.125366,0.003517l0,0z"/>
     <path fill="#1a1a1a" fill-rule="evenodd" id="path3299" d="m456.584839,83.537933c-0.085388,0.348068 0.141479,2.48484 0.173462,2.493004c2.620789,0.668015 2.973083,2.975349 2.973083,2.975349l0.710815,0.006126l-0.000793,1.302208l-0.746948,0l-0.041382,9.901962l-6.636536,-0.012154l0.013489,-9.816399l-0.713074,0l-0.000732,-1.385811l0.677002,-0.006119c0,0 0.167053,-2.448883 2.78656,-2.889709c0.032593,-0.005486 0.34967,-2.166351 0.264343,-2.514435l0.540649,-0.054024l0.000061,0z"/>
    </g>
    <g display="inline" id="g3301">
     <path fill="#000000" fill-rule="nonzero" stroke="#000000" stroke-width="0.883883" stroke-miterlimit="4" stroke-dashoffset="0" id="path3303" d="m446.242065,79.489479c0,0.356384 -0.34137,0.645271 -0.762512,0.645271c-0.421143,0 -0.762512,-0.288887 -0.762512,-0.645271c0,-0.356369 0.34137,-0.645256 0.762512,-0.645256c0.421143,0 0.762512,0.288887 0.762512,0.645256z"/>
     <path fill="#000000" fill-rule="evenodd" stroke="#000000" stroke-width="2.442343" stroke-miterlimit="4" id="path3305" d="m445.387451,79.013893l0.04834,-2.047127l0.077026,2.043617l-0.125366,0.00351l0,0z"/>
     <path fill="#000000" fill-rule="evenodd" stroke="#000000" stroke-width="0.827632px" id="path3307" d="m445.734558,79.935738c-0.085327,0.348076 0.141479,2.484856 0.173523,2.493019c2.620728,0.668007 2.973022,2.975357 2.973022,2.975357l0.710815,0.006104l-0.000793,1.302223l-0.746887,0l-0.041382,9.901962l-6.636597,-0.012154l0.01355,-9.816399l-0.713135,0l-0.000732,-1.385811l0.677002,-0.006126c0,0 0.167114,-2.448883 2.786621,-2.889702c0.032593,-0.005478 0.34967,-2.166359 0.264343,-2.514435l0.540649,-0.054039l0,0z"/>
    </g>
    <path fill="#000000" fill-rule="nonzero" stroke="#000000" stroke-width="0.883883" stroke-miterlimit="4" stroke-dashoffset="0" id="path3310" d="m486.528259,79.443047c0,0.356377 -0.341431,0.645271 -0.762573,0.645271c-0.421082,0 -0.762512,-0.288895 -0.762512,-0.645271c0,-0.356369 0.341431,-0.645264 0.762512,-0.645264c0.421143,0 0.762573,0.288895 0.762573,0.645264z"/>
    <path fill="#000000" fill-rule="evenodd" stroke="#000000" stroke-width="0.208844" stroke-miterlimit="4" id="path3312" d="m485.673584,78.967461l0.048279,-2.047104l0.077087,2.043602l-0.125366,0.003502z"/>
    <g fill="#1a1a1a" display="inline" id="g3314">
     <path fill="#1a1a1a" fill-rule="nonzero" id="path3316" d="m476.999084,82.866386c0,0.327347 -0.328674,0.592697 -0.734192,0.592697c-0.405457,0 -0.734192,-0.26535 -0.734192,-0.592697c0,-0.327339 0.328735,-0.59269 0.734192,-0.59269c0.405518,0 0.734192,0.26535 0.734192,0.59269z"/>
     <path fill="#1a1a1a" fill-rule="evenodd" stroke="#1a1a1a" stroke-width="2.322307" stroke-miterlimit="4" id="path3318" d="m476.176208,82.429543l0.046509,-1.880295l0.074219,1.877083l-0.120728,0.00322l0,-0.000008z"/>
     <path fill="#1a1a1a" fill-rule="evenodd" id="path3321" d="m476.510437,83.276291c-0.082153,0.319702 0.13623,2.282372 0.167053,2.289856c2.523376,0.613586 2.862549,2.73291 2.862549,2.73291l0.684387,0.00563l-0.000732,1.196106l-0.719177,0l-0.039795,9.095093l-6.389954,-0.011154l0.013,-9.016525l-0.686584,0l-0.000732,-1.272881l0.651855,-0.005623c0,0 0.160889,-2.249336 2.683044,-2.654243c0.031372,-0.005043 0.33667,-1.989822 0.254517,-2.309532l0.520569,-0.049644l0,0.000008z"/>
    </g>
    <path fill="#000000" fill-rule="evenodd" stroke="#000000" stroke-width="0.070771px" id="path3323" d="m486.03656,79.996201c-0.085388,0.348068 0.141479,2.484848 0.173523,2.493011c2.620789,0.668007 2.973022,2.975349 2.973022,2.975349l0.710815,0.006096l-0.000732,1.302216l-0.746948,0l-0.041382,9.90197l-6.636536,-0.012161l0.013489,-9.816399l-0.713074,0l-0.000732,-1.385811l0.677002,-0.006104c0,0 0.167114,-2.448875 2.786621,-2.889709c0.032593,-0.005501 0.34967,-2.166351 0.264343,-2.514427l0.540649,-0.054039l-0.000061,0.000008z"/>
    <path fill="#000000" fill-rule="evenodd" stroke="#000000" stroke-width="0.06956px" id="path3325" d="m495.814087,96.993057c0,0 0.002991,-1.432556 0.000977,-1.428139c-0.187134,-0.130821 -1.230896,-0.210365 -1.230896,-0.210365l0,1.780907l-1.101135,-0.140869l-0.015076,-1.681618c-0.673767,-0.106636 -0.961792,-0.141296 -1.59552,-0.163643l0.011292,1.615211l-1.186401,-0.139175l0,-1.517014c-0.876404,-0.026062 -1.507141,-0.033112 -1.507141,-0.033112l0.021423,1.51123l-1.720764,-0.009499l-1.527161,0l0,-1.604881l-2.373962,0l0.021606,1.623405l-1.505554,-0.00679l0,-1.604874l-2.336548,0.007095l-0.005005,1.622345l-1.515991,-0.007896l0,-1.604874l-2.373962,0l0.010071,1.627335l-1.495728,-0.009995l0,-1.604881l-2.373962,0l0.020386,1.620995l-1.506836,-0.002197l0,-1.604866l-2.373962,0l0.021484,1.625603l-1.505737,-0.004593l0,-1.604897l-2.373901,0l0.010193,1.621002l-1.495544,-0.00219l0,-1.604881l-2.373901,0l0.016479,1.624649l-1.5,-0.0056l0,-1.604874l-2.373962,0l0.021179,1.623436l-1.505981,-0.006798l0,-1.604874l-2.373962,0l0,1.594872l-1.512085,0l0,-1.554871l-9.042175,0l0.073181,26.488434c-0.079102,0.016693 43.942322,-0.139847 44.021912,-0.140945c0,0 9.023743,-0.127518 9.537842,-1.227509c0.030212,-0.479996 0.015076,-23.217278 0.014099,-23.24987l0.000732,0.000069z"/>
    <path fill="#000000" fill-rule="evenodd" stroke="#000000" stroke-width="0.239978px" id="path3056" d="m439.283936,126.67395l-0.01062,-2.86351c0,0 -0.562073,-0.095398 -0.530273,-0.307556c0.031799,-0.212112 0.350586,-0.058411 0.445435,-0.318161c0.304199,-0.833328 -0.148499,-1.442368 -0.960022,-1.455383c-0.896423,0.003006 -1.296082,0.627914 -0.991882,1.461212c0.094788,0.259811 0.413635,0.106049 0.445435,0.318161c0.031799,0.212112 -0.530273,0.307556 -0.530273,0.307556l-0.026489,2.709763l0,0.159073l2.158752,-0.0112l-0.000061,0.000046z"/>
   </g>
  </g>
  <g display="inline" id="layer6">
   <path fill="#000000" fill-rule="evenodd" id="path2235" d="m320.667419,119.670967c-2.215942,2.256203 -20.38739,3.880577 -24.772675,0.286583c0.027405,0.013397 -0.860809,-2.459702 -0.860809,-2.459702c0,0 -1.285492,-0.213448 -1.379059,-0.510345c0.000946,0.063095 -0.19519,-1.780205 -0.19519,-1.780205c0,0 -1.633606,-0.098297 -1.836517,-0.32254c-0.006012,0.010002 -0.208435,-3.167381 -0.208435,-3.167381c0,0 -1.146881,-0.052795 -1.311798,-0.295235c-0.013702,0.040199 -0.013214,-1.858665 -0.013214,-1.858665c0.017303,0.01091 -0.891693,0.095604 -1.194672,-0.228889c-0.025208,0.002014 -0.059998,-2.623276 -0.059998,-2.623276c0,0 -0.650055,0.068398 -0.892914,-0.189041c-0.012604,-0.118889 -0.032898,-2.540092 -0.032898,-2.540092c-0.789368,-0.052597 -0.682495,-0.374947 -0.682495,-0.374947l0.082794,-2.323799c-0.249969,-0.039505 -0.599213,-0.326019 -0.559753,-0.450989l0.142303,-2.33255c-0.374939,-0.171021 -0.428619,-0.572296 -0.428619,-0.644661l0.236053,-2.129112c0,0 -0.021088,0.042397 -0.235901,-0.117119c-0.095215,-0.082603 0.179962,-1.75396 0.291779,-1.826309c0.386444,-0.482941 0.017303,0.098595 -0.216217,-0.608009c-0.025696,-0.154984 0.325958,-2.315636 0.756226,-2.520462c0.213959,-0.05999 3.252045,-0.608849 4.901855,-0.646744c-0.048492,0.018951 3.852753,0 3.852753,0c0,0 6.540985,0.710564 9.374725,2.245384c-0.213501,-0.151604 4.677673,2.539047 5.415222,3.050652c-0.019409,-0.01899 5.764893,4.50219 7.521667,8.012581c-0.054871,-0.107193 2.168457,3.939148 2.552795,5.546944c-0.01709,-0.08329 0.71814,1.939644 1.108337,3.775124c0.243469,1.145287 0.335876,1.848976 0.428833,2.54895c0.054871,0.053589 -1.536438,0.94986 -1.722412,0.83741l-0.027405,2.505486l0,0.247467l-0.034302,0.893494l-0.000061,0z"/>
  </g>
  <g display="inline" id="layer5">
   <g fill="#0d0d0d" display="inline" id="g3843">
    <path fill="#000000" fill-rule="evenodd" id="path3146" d="m118.026794,124.685715c0,0 -16.950867,0.585297 -17.716248,0.089996c-0.090088,0.044998 -1.553284,1.440704 -2.161072,2.678833c0.022491,-0.067505 -0.765381,-0.090103 -0.765381,-0.090103c0,0 0.597168,-1.739319 0.453918,-2.248703c-0.047791,0.06369 -2.897034,-0.588959 -3.740662,-0.684479c0.06369,0.031799 -0.795898,0.12735 -1.114258,2.62645c0.0159,-0.095505 -0.732208,-0.0159 -0.732208,-0.0159c0,0 0,-2.4991 -0.827728,-2.849289c-0.031799,-0.0159 -10.259644,-1.511719 -13.772827,-2.29216c0,0 -2.415527,1.002823 -3.179565,1.957901c-0.382019,-0.15918 -0.382019,-0.15918 -0.382019,-0.15918c0,0 2.021545,-2.2285 1.941956,-2.944809c-0.047791,-0.0159 0.069214,-0.683411 -1.129547,-0.542725c-0.016907,0.011292 -2.887054,1.952835 -3.258484,2.459335l-0.315155,-0.241989c0,0 1.76712,-3.022125 1.069275,-3.719971c-0.022491,-0.022491 -1.666687,-2.061432 -2.685425,-1.886322c0.06369,-0.047791 -4.345551,1.368927 -4.345551,1.368927l-0.031799,-0.26265c0,0 2.02951,-1.217697 1.965851,-1.297287c0,0 -2.174103,0.47905 -2.185364,0.659149c-0.033813,-0.157578 -0.045013,-0.202606 -0.045013,-0.202606l3.568024,-3.02774c0.337677,-0.315163 4.901428,-3.561447 11.585388,-6.664551c0.660278,-0.306541 9.410034,-5.2481 26.338196,-5.31311c-0.09549,0 18.917023,-1.05629 35.260101,12.000153c0,0 1.283142,1.395691 2.341156,2.296158c0.045013,0.135056 -0.157562,0.06749 -0.157562,0.06749c0,0 -2.881439,-1.418182 -3.39917,-0.450211c-0.022491,0 -0.675354,1.530746 -0.067505,2.701324c0.607788,1.170578 1.823395,2.881424 1.823395,2.881424l-0.157562,0.089996c0,0 -2.588776,-2.881424 -3.804382,-2.543747c0.112549,0.044998 -1.305664,0.202591 1.913452,3.376663c0.022491,0 -0.202606,0.202606 -0.202606,0.202606c0,0 -2.903931,-2.318649 -4.02948,-2.161072c-0.945465,0.225113 -10.062469,2.678833 -10.062469,2.678833c0,0 -0.787903,1.733353 -0.315155,2.971451c-0.089996,0.022507 -0.472717,0.157578 -0.472717,0.157578c0,0 -1.193085,-2.52124 -1.598297,-2.52124c-0.87793,0.090088 -3.39917,0.720352 -3.39917,0.720352c0,0 0.427704,1.82341 0.810394,2.296127c-0.540283,0.022507 -0.540283,0.045013 -0.540283,0.045013c0,0 -2.116058,-2.2061 -2.476227,-2.2061l-0.000214,0.000183z"/>
    <path fill="#000000" fill-rule="evenodd" id="path3148" d="m80.523254,107.419693l-3.64679,-13.326591l-0.135071,-2.61129l1.305664,2.521248l3.916931,12.606232l-1.440704,0.810402l-0.000031,0z"/>
    <path fill="#000000" fill-rule="evenodd" id="path3150" d="m78.812408,96.074089l-0.270142,-3.556747l1.305664,2.836395l2.971466,11.30056l-0.945465,0.31517l-3.061523,-10.89537l0,-0.000008z"/>
    <path fill="#000000" fill-rule="evenodd" id="path3152" d="m84.980469,105.30365l-2.386169,-11.750809l-0.225098,-2.70134l0.990479,2.566277l2.971466,11.525703l-1.350677,0.360176l0,-0.000008z"/>
    <path fill="#000000" fill-rule="evenodd" id="path3154" d="m90.78833,103.975487l-1.125549,-7.496201l0.045013,-3.421684l1.125549,3.286621l1.170593,7.608734l-1.215607,0.022514l0,0.000015z"/>
    <path fill="#000000" fill-rule="evenodd" id="path3156" d="m93.253693,103.29258l-1.018738,-9.773506l0.09549,-2.769691l0.827728,3.088036l1.177917,9.423309l-1.082397,0.031815l0,0.000038z"/>
    <path fill="#000000" fill-rule="evenodd" id="path3158" d="m103.622742,102.510536l0.104828,-9.341644l0.350189,-2.706032l0.541199,2.610512l0.12735,9.423317l-1.123566,0.013802l0,0.000046z"/>
    <path fill="#000000" fill-rule="evenodd" id="path3160" d="m106.911133,102.146507l0.15918,-5.125526l0.764038,-3.756599l0.636719,3.979439l-0.12735,5.030022l-1.432587,-0.127342l0,0.000008z"/>
    <path fill="#000000" fill-rule="evenodd" id="path3162" d="m114.233307,102.592209l0.986908,-9.009468l0.732208,-2.801529l0.19101,3.215385l-0.955048,8.786606l-0.955078,-0.191002l0,0.000008z"/>
    <path fill="#000000" fill-rule="evenodd" id="path3164" d="m121.96936,104.120308l1.655426,-7.672371l1.273407,-3.47007l-0.318359,3.852104l-1.432587,7.76786l-1.177917,-0.477531l0.000031,0.000008z"/>
    <path fill="#000000" fill-rule="evenodd" id="path3166" d="m124.070496,104.725189l2.196655,-10.601242l0.19101,-2.992538l-1.050568,3.119888l-2.292175,10.25103l0.955078,0.22287l0,-0.000008z"/>
    <path fill="#000000" fill-rule="evenodd" id="path3168" d="m128.909485,106.444313l3.406403,-11.237953l1.273407,-2.674187l-0.28653,3.310898l-3.024384,11.33345l-1.368927,-0.732208l0.000031,0z"/>
   </g>
  </g>
  <path fill="#000000" fill-rule="evenodd" stroke="#000000" stroke-width="1px" id="path2236" d="m353.625854,81.527199l0.505798,0.011398l0.44281,-2.456886l0.205383,-0.889297l-0.289612,-0.021011l-0.027283,-0.187904l0.363037,-0.012344l0.285828,-1.784286l0.133667,-0.979584l0.116333,1.002098l0.299683,1.762169l0.2901,0.010681l0.030396,0.202896l-0.297485,-0.022179l0.830994,5.120758l0.057617,35.491745l0,0l-11.001648,-0.001221l0,-35.493004l0.845276,-5.209625l-0.262695,0.0243l0.021423,-0.173752l0.265198,-0.0214l0.263062,-1.393211l0.164612,-1.168541l0.093811,1.176704l0.252563,1.323746l0.264221,0.018791l-0.010803,0.141182l-0.21936,0.022758l0.263733,1.057053l0.814453,2.442375l0.504883,-0.003799l2.309021,-8.219307l2.484985,8.22876l0,-0.000061z"/>
  <path fill="#000000" fill-rule="evenodd" stroke="#000000" stroke-width="1px" id="path7339" d="m421.679016,81.485558l0.699402,0l0.442871,-2.47966l0.205383,-0.889305l-0.289673,-0.021011l-0.027283,-0.187904l0.363037,-0.012337l0.285828,-1.784279l0.133667,-0.979599l0.116333,1.002106l0.299683,1.762169l0.2901,0.010674l0.030396,0.202911l-0.297546,-0.022179l0.831055,5.120758l0.057556,35.491745l0,0l-11.001587,-0.001221l0,-35.492996l0.845276,-5.209633l-0.262756,0.024307l0.021484,-0.173752l0.265198,-0.021408l0.263,-1.393211l0.164673,-1.168526l0.093811,1.176697l0.252563,1.323753l0.264221,0.018776l-0.010803,0.141174l-0.219421,0.022766l0.263794,1.057037l0.696716,2.552467l0.64917,0.003792l2.282471,-8.337013l2.291382,8.262932l0,-0.000031z"/>
  <path fill="#000000" fill-rule="evenodd" stroke="#000000" stroke-width="1px" id="path7342" d="m413.835327,89.08963l-26.096375,0.007736l0,-0.501053c0,0 0.159424,-1.00975 -0.470703,-0.956604c0.022766,-0.007576 -0.569397,-0.091103 -0.516235,0.82753l-1.267883,-0.015182l-0.015198,-0.78199c0,0 0.865479,-1.017319 -0.296082,-1.381737c-0.589783,0.238327 -0.585571,0.801163 -0.243408,1.305679c0.161987,0.238861 0.061584,0.613487 0.061218,0.87323l-1.290649,0.007584c0,0 0.040894,-0.821106 -0.318848,-0.819946c0,0 -0.796509,-0.201683 -0.614258,1.180061l-26.330078,0l0,3.894424l58.68689,0l0,-3.65049l-1.288391,0.010735l0,0.000023z"/>
  <g display="inline" id="g13443">
   <path fill="none" stroke="#000000" stroke-width="3.3" stroke-miterlimit="4" id="path8345" d="m346.423218,92.992706c-16.783447,16.759567 -25.181885,24.523026 -46.654388,25.190369c0,0 -16.812408,0.961487 -26.240967,-6.202751c0,0.042938 0,0.042938 0,0.042938"/>
   <path fill="none" stroke="#000000" stroke-width="3.3" stroke-miterlimit="4" id="path8336" d="m346.163635,92.118431c0,0 -23.910492,22.20945 -46.464935,24.766731c0,0 -11.733917,0.993515 -26.492798,-6.41629"/>
   <path fill="none" stroke="#000000" stroke-width="1px" id="path11254" d="m340.000427,97.350517l-1.791748,3.765656"/>
   <path fill="none" stroke="#000000" stroke-width="1px" id="path11256" d="m337.297668,99.111877l3.644165,-0.24295"/>
   <path fill="none" stroke="#000000" stroke-width="1px" id="path11258" d="m337.783569,99.233353l-1.336243,3.279739l0,0l0.121521,-0.091103"/>
   <path fill="none" stroke="#000000" stroke-width="1px" id="path11262" d="m330.965942,104.168152l3.765625,-0.273315"/>
   <path fill="none" stroke="#000000" stroke-width="1px" id="path11264" d="m330.191528,104.60849l-3.49231,5.55735"/>
   <path fill="none" stroke="#000000" stroke-width="1px" id="path11266" d="m326.046265,107.326431l5.101868,0.273308"/>
   <path fill="none" stroke="#000000" stroke-width="1px" id="path11268" d="m325.378174,107.508636l-3.401184,5.739555"/>
   <path fill="none" stroke="#000000" stroke-width="1px" id="path11270" d="m321.642914,109.482559l4.464142,1.700607"/>
   <path fill="none" stroke="#000000" stroke-width="1px" id="path11272" d="m320.853363,110.029182l-3.55307,5.25367"/>
   <path fill="none" stroke="#000000" stroke-width="1px" id="path11274" d="m317.057343,111.72979l4.524841,2.004303"/>
   <path fill="none" stroke="#000000" stroke-width="1px" id="path11276" d="m316.632202,112.063843l-3.887115,4.585571"/>
   <path fill="none" stroke="#000000" stroke-width="1px" id="path11278" d="m312.593262,113.703712l4.069305,1.791725"/>
   <path fill="none" stroke="#000000" stroke-width="1px" id="path11280" d="m311.19632,114.311073l-3.006439,3.310112"/>
   <path fill="none" stroke="#000000" stroke-width="1px" id="path11282" d="m307.855835,115.313217l3.49234,1.548767"/>
   <path fill="none" stroke="#000000" stroke-width="1px" id="path11284" d="m306.580383,115.799118c-0.12146,0 -2.793854,2.186493 -2.793854,2.186493"/>
   <path fill="none" stroke="#000000" stroke-width="1px" id="path11286" d="m303.604309,116.315369l2.976074,1.427292"/>
   <path fill="none" stroke="#000000" stroke-width="1px" id="path11288" d="m302.723633,116.710144l-2.186493,1.579147"/>
   <path fill="none" stroke="#000000" stroke-width="2" stroke-miterlimit="4" id="path11290" d="m300.233459,117.013824l3.097534,1.305832"/>
   <path fill="none" stroke="#000000" stroke-width="2" stroke-miterlimit="4" id="path12267" d="m339.711914,99.521843l0,21.318367"/>
   <path fill="none" stroke="#000000" stroke-width="2" stroke-miterlimit="4" id="path12269" d="m335.156677,100.85804l0,20.10363"/>
   <path fill="none" stroke="#000000" stroke-width="2" stroke-miterlimit="4" id="path12271" d="m330.601501,103.712631l0,17.218674"/>
   <path fill="none" stroke="#000000" stroke-width="2" stroke-miterlimit="4" id="path12273" d="m325.924805,106.870911l0,13.969299"/>
   <path fill="none" stroke="#000000" stroke-width="2" stroke-miterlimit="4" id="path12275" d="m321.187408,109.482559l0,11.357651"/>
   <path fill="none" stroke="#000000" stroke-width="2" stroke-miterlimit="4" id="path12277" d="m316.814423,111.426117l0,9.353348l0.117401,-0.06778l0.004059,0.007034"/>
   <path fill="none" stroke="#000000" stroke-width="2" stroke-miterlimit="4" id="path12279" d="m312.198456,113.369667l0,7.470543"/>
   <path fill="none" stroke="#000000" stroke-width="2" stroke-miterlimit="4" id="path12281" d="m307.76474,114.948807l0,6.012863"/>
   <path fill="none" stroke="#000000" stroke-width="2" stroke-miterlimit="4" id="path12283" d="m303.148804,116.224258l0,4.798157"/>
   <path fill="none" stroke="#000000" stroke-width="1px" id="path12376" d="m335.414856,100.964317l3.385986,-0.21257"/>
   <path fill="none" stroke="#000000" stroke-width="1px" id="path12378" d="m334.124207,101.814629l-2.793884,5.071465"/>
   <path fill="none" stroke="#000000" stroke-width="2" stroke-miterlimit="4" id="path7591" d="m294.372437,120.756058l0,-4.160431"/>
   <path fill="none" stroke="#000000" stroke-width="2" stroke-miterlimit="4" id="path7593" d="m289.543915,120.756058l0,-4.767792"/>
   <path fill="none" stroke="#000000" stroke-width="2" stroke-miterlimit="4" id="path7595" d="m284.988708,120.664948l0,-5.739555"/>
   <path fill="none" stroke="#000000" stroke-width="2" stroke-miterlimit="4" id="path7597" d="m280.403137,120.513107l0,-6.954277l0.12146,0"/>
   <path fill="none" stroke="#000000" stroke-width="2" stroke-miterlimit="4" id="path7599" d="m275.969391,120.330902l0,-8.594154"/>
   <path fill="none" stroke="#000000" stroke-width="1px" id="path8572" d="m294.524261,117.840729l3.583435,-0.819946"/>
   <path fill="none" stroke="#000000" stroke-width="1px" id="path8574" d="m294.554626,116.534897l3.826385,1.670242"/>
   <path fill="none" stroke="#000000" stroke-width="1px" id="path8576" d="m289.726135,117.476303l4.980347,-0.668091"/>
   <path fill="none" stroke="#000000" stroke-width="1px" id="path8578" d="m289.786865,115.957901l4.676666,2.307968l0,-0.030365l0,0"/>
   <path fill="none" stroke="#000000" stroke-width="1px" id="path8580" d="m285.049438,116.808212l4.373016,-0.728836"/>
   <path fill="none" stroke="#000000" stroke-width="1px" id="path8582" d="m285.110168,114.98613l4.190796,2.733124"/>
   <path fill="none" stroke="#000000" stroke-width="1px" id="path8584" d="m280.494232,115.745331l4.433746,-0.850304"/>
   <path fill="none" stroke="#000000" stroke-width="1px" id="path8586" d="m280.524597,113.498093l4.373016,3.340485l0,0"/>
   <path fill="none" stroke="#000000" stroke-width="1px" id="path8588" d="m276.030121,113.892883l4.251526,-0.36441"/>
   <path fill="none" stroke="#000000" stroke-width="1px" id="path8590" d="m276.151611,111.706383l4.069305,3.826363"/>
  </g>
  <g display="inline" id="g12056">
   <g display="inline" id="g11860">
    <path fill="none" stroke="#000000" stroke-width="3.3" stroke-miterlimit="4" id="path11862" d="m423.688171,93.092613c16.783508,16.75956 25.181946,24.523018 46.654419,25.190361c0,0 16.812378,0.961487 26.240967,-6.202751"/>
    <path fill="none" stroke="#000000" stroke-width="3.3" stroke-miterlimit="4" id="path11864" d="m423.947815,92.21833c0,0 23.910461,22.20945 46.464905,24.766747c0,0 11.733948,0.9935 26.492798,-6.416298"/>
    <path fill="none" stroke="#000000" stroke-width="1px" id="path11866" d="m430.111023,97.450432l1.791687,3.765625"/>
    <path fill="none" stroke="#000000" stroke-width="1px" id="path11868" d="m432.813782,99.211777l-3.644165,-0.24295"/>
    <path fill="none" stroke="#000000" stroke-width="1px" id="path11870" d="m432.327881,99.333237l1.336182,3.279762l0,0l-0.12146,-0.09111"/>
    <path fill="none" stroke="#000000" stroke-width="1px" id="path11872" d="m439.145508,104.268051l-3.765625,-0.273308"/>
    <path fill="none" stroke="#000000" stroke-width="1px" id="path11874" d="m439.919922,104.708389l3.49231,5.55735"/>
    <path fill="none" stroke="#000000" stroke-width="1px" id="path11876" d="m444.065125,107.426331l-5.101807,0.273323"/>
    <path fill="none" stroke="#000000" stroke-width="1px" id="path11878" d="m444.733215,107.608543l3.401245,5.739555"/>
    <path fill="none" stroke="#000000" stroke-width="1px" id="path11880" d="m448.468506,109.582458l-4.464111,1.700615"/>
    <path fill="none" stroke="#000000" stroke-width="1px" id="path11882" d="m449.258057,110.129082l3.55304,5.25367"/>
    <path fill="none" stroke="#000000" stroke-width="1px" id="path11884" d="m453.054077,111.829697l-4.524841,2.00428"/>
    <path fill="none" stroke="#000000" stroke-width="1px" id="path11886" d="m453.479248,112.163742l3.887085,4.585571"/>
    <path fill="none" stroke="#000000" stroke-width="1px" id="path11888" d="m457.518188,113.803619l-4.069336,1.791718"/>
    <path fill="none" stroke="#000000" stroke-width="1px" id="path11890" d="m458.9151,114.41098l3.006409,3.31012"/>
    <path fill="none" stroke="#000000" stroke-width="1px" id="path11892" d="m462.255554,115.413116l-3.49231,1.548782"/>
    <path fill="none" stroke="#000000" stroke-width="1px" id="path11894" d="m463.531067,115.899017c0.12146,0 2.793823,2.186493 2.793823,2.186493"/>
    <path fill="none" stroke="#000000" stroke-width="1px" id="path11896" d="m466.50708,116.415268l-2.976013,1.427292"/>
    <path fill="none" stroke="#000000" stroke-width="1px" id="path11898" d="m467.387756,116.810059l2.186523,1.579132"/>
    <path fill="none" stroke="#000000" stroke-width="2" stroke-miterlimit="4" id="path11900" d="m469.877991,117.113739l-3.097595,1.305817"/>
    <path fill="none" stroke="#000000" stroke-width="2" stroke-miterlimit="4" id="path11902" d="m430.399536,99.621742l0,21.318367"/>
    <path fill="none" stroke="#000000" stroke-width="2" stroke-miterlimit="4" id="path11904" d="m434.954712,100.957939l0,20.103645"/>
    <path fill="none" stroke="#000000" stroke-width="2" stroke-miterlimit="4" id="path11906" d="m439.509949,103.812531l0,17.218674"/>
    <path fill="none" stroke="#000000" stroke-width="2" stroke-miterlimit="4" id="path11908" d="m444.186584,106.97081l0,13.969299"/>
    <path fill="none" stroke="#000000" stroke-width="2" stroke-miterlimit="4" id="path11910" d="m448.924011,109.582458l0,11.357651"/>
    <path fill="none" stroke="#000000" stroke-width="2" stroke-miterlimit="4" id="path11912" d="m453.296997,111.526016l0,9.353348l-0.117371,-0.06778l-0.004089,0.00705"/>
    <path fill="none" stroke="#000000" stroke-width="2" stroke-miterlimit="4" id="path11914" d="m457.912964,113.469566l0,7.470543"/>
    <path fill="none" stroke="#000000" stroke-width="2" stroke-miterlimit="4" id="path11916" d="m462.34668,115.048706l0,6.012878"/>
    <path fill="none" stroke="#000000" stroke-width="2" stroke-miterlimit="4" id="path11918" d="m466.962646,116.324158l0,4.798157"/>
    <path fill="none" stroke="#000000" stroke-width="1px" id="path11920" d="m434.696594,101.064217l-3.386047,-0.21257"/>
    <path fill="none" stroke="#000000" stroke-width="1px" id="path11922" d="m435.987244,101.914528l2.793823,5.071465"/>
    <path fill="none" stroke="#000000" stroke-width="2" stroke-miterlimit="4" id="path11924" d="m475.739014,120.855957l0,-4.160416"/>
    <path fill="none" stroke="#000000" stroke-width="2" stroke-miterlimit="4" id="path11926" d="m480.567505,120.855957l0,-4.767776"/>
    <path fill="none" stroke="#000000" stroke-width="2" stroke-miterlimit="4" id="path11928" d="m485.122742,120.764847l0,-5.739548"/>
    <path fill="none" stroke="#000000" stroke-width="2" stroke-miterlimit="4" id="path11930" d="m489.708313,120.613007l0,-6.954277l-0.121521,0"/>
    <path fill="none" stroke="#000000" stroke-width="2" stroke-miterlimit="4" id="path11932" d="m494.142029,120.430801l0,-8.594154"/>
    <path fill="none" stroke="#000000" stroke-width="1px" id="path11934" d="m475.587158,117.940628l-3.583435,-0.819946"/>
    <path fill="none" stroke="#000000" stroke-width="1px" id="path11936" d="m475.556763,116.634796l-3.826355,1.670242"/>
    <path fill="none" stroke="#000000" stroke-width="1px" id="path11938" d="m480.385315,117.576202l-4.980347,-0.668091"/>
    <path fill="none" stroke="#000000" stroke-width="1px" id="path11940" d="m480.324585,116.0578l-4.676697,2.307983l0,-0.03038l0,0"/>
    <path fill="none" stroke="#000000" stroke-width="1px" id="path11942" d="m485.061951,116.908112l-4.372986,-0.728836"/>
    <path fill="none" stroke="#000000" stroke-width="1px" id="path11944" d="m485.001221,115.086029l-4.190796,2.733124"/>
    <path fill="none" stroke="#000000" stroke-width="1px" id="path11946" d="m489.617188,115.84523l-4.433716,-0.850304"/>
    <path fill="none" stroke="#000000" stroke-width="1px" id="path11948" d="m489.586792,113.598l-4.372986,3.340477l0,0"/>
    <path fill="none" stroke="#000000" stroke-width="1px" id="path11950" d="m494.081299,113.992783l-4.251526,-0.364426"/>
    <path fill="none" stroke="#000000" stroke-width="1px" id="path11952" d="m493.959839,111.806282l-4.069336,3.826378"/>
   </g>
   <path fill="none" stroke="#000000" stroke-width="2.137787" stroke-miterlimit="4" id="path11954" d="m503.25708,110.593819l15.334717,9.248634"/>
   <path fill="none" stroke="#000000" stroke-width="2.137787" stroke-miterlimit="4" id="path11956" d="m502.634338,111.109177l14.530212,8.974701"/>
  </g>
  <path fill="#000000" fill-rule="evenodd" stroke="#000000" stroke-width="1px" id="path2241" d="m300.238525,121.241882l-0.010742,-2.898911c0,0 -0.569031,-0.096634 -0.536835,-0.311371c0.032227,-0.214722 0.35495,-0.059097 0.450958,-0.322098c0.307953,-0.843597 -0.15033,-1.46019 -0.971924,-1.473343c-0.907501,0.00296 -1.312103,0.635651 -1.00415,1.479248c0.096008,0.263016 0.418732,0.107376 0.450958,0.322113c0.032196,0.214722 -0.536835,0.311356 -0.536835,0.311356l-0.026855,2.743225l0,0.161057l2.185425,-0.011261l0,-0.000015z"/>
  <path fill="#000000" fill-rule="evenodd" stroke="#000000" stroke-width="1px" id="path2249" d="m471.97406,121.229584l-0.010742,-2.898926c0,0 -0.569031,-0.096619 -0.536865,-0.311356c0.032227,-0.214737 0.35498,-0.059097 0.450989,-0.322113c0.307922,-0.843597 -0.15033,-1.46019 -0.971924,-1.473343c-0.907532,0.00296 -1.312134,0.635651 -1.00415,1.479263c0.096008,0.263 0.418701,0.107361 0.450928,0.322098c0.032227,0.214737 -0.536804,0.311356 -0.536804,0.311356l-0.026855,2.74324l0,0.161057l2.185425,-0.011276l0,0z"/>
  <path fill="#000000" fill-rule="evenodd" stroke="#000000" stroke-width="0.904122" stroke-miterlimit="4" id="path10593" d="m266.290833,121.264297l76.164734,0.010834l0.000488,-0.431931l0,0c-0.006592,0 -67.754303,-0.143448 -76.169556,-0.149002l0.004242,0.570099l0.000092,0z"/>
  <path fill="#000000" fill-rule="evenodd" stroke="#000000" stroke-width="0.904122" stroke-miterlimit="4" id="path2253" d="m266.297607,118.642181l76.296143,0l0,1.44838l-76.295715,0l-0.000458,-1.44838l0.000031,0z"/>
  <g display="inline" id="g2268">
   <path fill="#000000" fill-rule="evenodd" stroke="#000000" stroke-width="1px" id="path2264" d="m427.786133,118.732895l136.100464,0l0,1.503143l-136.23822,0l0.137695,-1.503143l0.000061,0z"/>
   <path fill="#000000" fill-rule="evenodd" stroke="#000000" stroke-width="1px" id="path2266" d="m563.685913,120.865341c-0.012146,0 -136.418762,-0.054031 -136.418762,-0.054031l0.010986,0.502304l136.406738,0l0.000732,-0.448273l0.000305,0z"/>
  </g>
  <path fill="#000000" fill-rule="evenodd" stroke="#000000" stroke-width="1px" id="path2276" d="m410.499817,118.66066l17.82605,0l0,10.082184l-17.917175,0l0.091125,-10.082184z"/>
  <path fill="#000000" fill-rule="evenodd" stroke="#000000" stroke-width="1px" id="path2280" d="m342.202087,118.66066l17.82605,0l0,10.082184l-17.917175,0l0.091125,-10.082184z"/>
  <g display="inline" id="g4241">
   <path fill="#000000" fill-rule="evenodd" stroke="#000000" stroke-width="1px" id="path2291" d="m358.484314,119.491623l22.935425,-11.43084l0.681519,1.35289l-22.949585,11.428185l-0.667358,-1.350235z"/>
   <path fill="none" stroke="#000000" stroke-width="3" stroke-miterlimit="4" id="path2296" d="m358.619263,126.341034c0.016663,0.002914 13.938843,-11.523613 23.158142,-16.236267l0.643982,-0.32917"/>
   <path fill="none" stroke="#000000" stroke-width="2.9" stroke-miterlimit="4" id="path3270" d="m361.057129,124.237228l-2.226379,-3.858047l4.180054,1.62944l-1.354736,-2.788467l3.959839,0.942642l-1.325745,-2.686218l3.676575,0.927795l-1.091125,-2.287308l3.460876,0.663361l-0.923767,-1.854919l2.870789,0.393524l-0.823608,-1.412994l2.621277,0.253883l-0.679871,-1.220703l2.275696,0.138084l-0.536133,-1.028404l2.074219,0.070557l-0.765869,-1.489746l0,0"/>
  </g>
  <g display="inline" id="g4247">
   <path fill="#000000" fill-rule="evenodd" stroke="#000000" stroke-width="1px" id="path4249" d="m411.690796,119.281723l-22.935364,-11.43084l-0.681519,1.35289l22.949524,11.428185l0.667358,-1.350235z"/>
   <path fill="none" stroke="#000000" stroke-width="3" stroke-miterlimit="4" id="path4251" d="m411.555908,126.131134c-0.016663,0.002914 -13.938843,-11.523613 -23.158142,-16.236267l-0.643982,-0.32917"/>
   <path fill="none" stroke="#000000" stroke-width="2.9" stroke-miterlimit="4" id="path4253" d="m409.118042,124.027328l2.226379,-3.858047l-4.180115,1.62944l1.354736,-2.788467l-3.959778,0.942642l1.325745,-2.686218l-3.676575,0.92778l1.091125,-2.287308l-3.460876,0.663361l0.923706,-1.854904l-2.870728,0.393524l0.823608,-1.412994l-2.621277,0.253883l0.679871,-1.220703l-2.275757,0.138084l0.536133,-1.028404l-2.074158,0.070557l0.765869,-1.489731l0,0"/>
  </g>
  <path fill="#000000" fill-rule="evenodd" stroke="#000000" stroke-width="0.205521" stroke-miterlimit="4" id="path12772" d="m269.830902,98.625397c0.083527,-0.03669 0.149536,-0.134148 0.149536,-0.235619l0,0c0,-0.134567 -0.103394,-0.243797 -0.230804,-0.243797c-0.127411,0 -0.230804,0.10923 -0.230804,0.243797c0,0.105576 0.063629,0.195549 0.161591,0.234879l-0.023163,1.365891l-0.386475,0.005661l0,0.26207l0.144592,0c0,0 0.031921,0.398201 -0.043945,0.690926c-1.001984,2.611603 -1.927551,2.929138 -1.927551,2.929138l-1.129211,-0.01088l-0.544891,1.043221l-0.0112,3.578056l-0.580505,0.006325l-0.007996,0.803528l0.59967,0l0,8.380196l-0.665588,1.723587l0.021484,8.61792l0,0l9.150879,-0.000244l-0.021454,-8.730957l-0.687042,-1.723587l0,-8.267159l0.59967,0l-0.007996,-0.803535l-0.580475,-0.006325l-0.0112,-3.578056l-0.480469,-0.997864l-0.996307,-0.034477c0,0 -0.804321,-0.492889 -1.940125,-2.966469c-0.029236,-0.451797 0.003296,-0.655334 -0.001953,-0.659187l0,0l0.144012,0.001923l-0.002655,-0.269295l-0.391846,0l-0.067902,-1.359482l0.000122,-0.000183z"/>
  <path fill="#000000" fill-rule="evenodd" stroke="#000000" stroke-width="0.205521" stroke-miterlimit="4" id="path12108" d="m500.142029,98.625397c0.083557,-0.03669 0.149597,-0.134148 0.149597,-0.235619l0,0c0,-0.134567 -0.103455,-0.243797 -0.230774,-0.243797c-0.127441,0 -0.230835,0.10923 -0.230835,0.243797c0,0.105576 0.063599,0.195549 0.161621,0.234879l-0.023071,1.365891l-0.386536,0.005661l0,0.26207l0.144592,0c0,0 0.031921,0.398201 -0.043884,0.690926c-1.002014,2.611603 -1.927551,2.929138 -1.927551,2.929138l-1.129211,-0.01088l-0.544922,1.043221l-0.011169,3.578056l-0.580505,0.006325l-0.007996,0.803528l0.59967,0l0,8.380196l-0.665588,1.723587l0.021423,8.61792l0,0l9.150879,-0.000244l-0.021362,-8.730957l-0.687073,-1.723587l0,-8.267159l0.59967,0l-0.007996,-0.803535l-0.580505,-0.006325l-0.011169,-3.578056l-0.480469,-0.997864l-0.996277,-0.034477c0,0 -0.804321,-0.492889 -1.940125,-2.966469c-0.029236,-0.451797 0.003418,-0.655334 -0.002441,-0.659187l0,0l0.144043,0.001923l-0.002686,-0.269295l-0.391846,0l-0.067932,-1.359482l0.000427,-0.000183z"/>
  <g display="inline" id="layer3">
   <g display="inline" id="g3766">
    <path fill="#000000" fill-rule="nonzero" id="path2836" d="m44.154724,44.461739c0,1.26561 -1.02597,2.29158 -2.291565,2.29158c-1.265594,0 -2.291595,-1.02597 -2.291595,-2.29158c0,-1.26561 1.026001,-2.291588 2.291595,-2.291588c1.265594,0 2.291565,1.025978 2.291565,2.291588z"/>
    <path fill="#000000" fill-rule="nonzero" id="path2838" d="m35.355499,46.1702c0,1.26561 -1.02597,2.291588 -2.291565,2.291588c-1.265594,0 -2.291595,-1.025978 -2.291595,-2.291588c0,-1.265602 1.026001,-2.29158 2.291595,-2.29158c1.265594,0 2.291565,1.025978 2.291565,2.29158z"/>
    <path fill="#000000" fill-rule="nonzero" id="path2840" d="m28.288727,48.921398c0,1.265602 -1.02597,2.29158 -2.291595,2.29158c-1.265594,0 -2.291565,-1.025978 -2.291565,-2.29158c0,-1.26561 1.02597,-2.291588 2.291565,-2.291588c1.265625,0 2.291595,1.025978 2.291595,2.291588z"/>
    <path fill="#000000" fill-rule="nonzero" id="path2842" d="m21.707428,53.129097c0,1.26561 -1.02597,2.29158 -2.291565,2.29158c-1.265625,0 -2.291595,-1.02597 -2.291595,-2.29158c0,-1.265606 1.02597,-2.291576 2.291595,-2.291576c1.265594,0 2.291565,1.02597 2.291565,2.291576z"/>
    <path fill="#000000" fill-rule="nonzero" id="path2844" d="m16.312927,58.361763c0,1.26561 -1.02597,2.291588 -2.291565,2.291588c-1.265625,0 -2.291595,-1.025978 -2.291595,-2.291588c0,-1.265602 1.02597,-2.29158 2.291595,-2.29158c1.265594,0 2.291565,1.025978 2.291565,2.29158z"/>
    <path fill="#000000" fill-rule="nonzero" id="path2846" d="m11.94339,64.565437c0,1.26561 -1.02597,2.29158 -2.291565,2.29158c-1.265625,0 -2.291595,-1.02597 -2.291595,-2.29158c0,-1.26561 1.02597,-2.291588 2.291595,-2.291588c1.265594,0 2.291565,1.025978 2.291565,2.291588z"/>
    <path fill="#000000" fill-rule="nonzero" id="path2848" d="m8.706696,71.686172c0,1.26561 -1.02597,2.291588 -2.291595,2.291588c-1.265594,0 -2.291565,-1.025978 -2.291565,-2.291588c0,-1.265602 1.02597,-2.29158 2.291565,-2.29158c1.265625,0 2.291595,1.025978 2.291595,2.29158z"/>
    <path fill="#000000" fill-rule="nonzero" id="path2850" d="m6.980469,79.238472c0,1.265594 -1.02597,2.29158 -2.291595,2.29158c-1.265594,0 -2.291565,-1.025986 -2.291565,-2.29158c0,-1.26561 1.02597,-2.291595 2.291565,-2.291595c1.265625,0 2.291595,1.025986 2.291595,2.291595z"/>
    <path fill="#000000" fill-rule="nonzero" id="path2852" d="m6.44101,86.898659c0,1.265602 -1.02597,2.29158 -2.291595,2.29158c-1.265594,0 -2.291565,-1.025978 -2.291565,-2.29158c0,-1.26561 1.02597,-2.291588 2.291565,-2.291588c1.265625,0 2.291595,1.025978 2.291595,2.291588z"/>
    <path fill="#000000" fill-rule="nonzero" id="path2854" d="m7.735687,94.77462c0,1.26561 -1.02597,2.291588 -2.291595,2.291588c-1.265594,0 -2.291565,-1.025978 -2.291565,-2.291588c0,-1.265602 1.02597,-2.29158 2.291565,-2.29158c1.265625,0 2.291595,1.025978 2.291595,2.29158z"/>
    <path fill="#000000" fill-rule="nonzero" id="path2856" d="m10.217163,102.111137c0,1.26561 -1.026001,2.29158 -2.291595,2.29158c-1.265594,0 -2.291595,-1.02597 -2.291595,-2.29158c0,-1.26561 1.026001,-2.291588 2.291595,-2.291588c1.265594,0 2.291595,1.025978 2.291595,2.291588z"/>
    <path fill="#000000" fill-rule="nonzero" id="path2858" d="m14.370911,109.33976c0,1.26561 -1.02597,2.291588 -2.291565,2.291588c-1.265594,0 -2.291595,-1.025978 -2.291595,-2.291588c0,-1.265602 1.026001,-2.29158 2.291595,-2.29158c1.265594,0 2.291565,1.025978 2.291565,2.29158z"/>
    <path fill="#000000" fill-rule="nonzero" id="path2860" d="m20.574585,115.813164c0,1.265602 -1.02597,2.291573 -2.291565,2.291573c-1.265625,0 -2.291595,-1.02597 -2.291595,-2.291573c0,-1.265617 1.02597,-2.29158 2.291595,-2.29158c1.265594,0 2.291565,1.025963 2.291565,2.29158z"/>
    <path fill="#000000" fill-rule="nonzero" id="path2862" d="m27.533478,120.722153c0,1.26561 -1.02597,2.29158 -2.291565,2.29158c-1.265594,0 -2.291595,-1.02597 -2.291595,-2.29158c0,-1.26561 1.026001,-2.291595 2.291595,-2.291595c1.265594,0 2.291565,1.025986 2.291565,2.291595z"/>
    <path fill="#000000" fill-rule="nonzero" id="path2864" d="m36.620819,124.228577c0,1.26561 -1.02597,2.29158 -2.291565,2.29158c-1.265594,0 -2.291595,-1.02597 -2.291595,-2.29158c0,-1.26561 1.026001,-2.29158 2.291595,-2.29158c1.265594,0 2.291565,1.02597 2.291565,2.29158z"/>
    <path fill="#000000" fill-rule="nonzero" id="path2866" d="m47.036041,125.08786c0,1.26561 -1.02597,2.29158 -2.291565,2.29158c-1.265625,0 -2.291595,-1.02597 -2.291595,-2.29158c0,-1.26561 1.02597,-2.29158 2.291595,-2.29158c1.265594,0 2.291565,1.02597 2.291565,2.29158z"/>
    <path fill="#000000" fill-rule="nonzero" id="path2868" d="m56.097351,124.579224c0,1.26561 -1.02597,2.29158 -2.291565,2.29158c-1.265625,0 -2.291595,-1.02597 -2.291595,-2.29158c0,-1.26561 1.02597,-2.291595 2.291595,-2.291595c1.265594,0 2.291565,1.025986 2.291565,2.291595z"/>
    <path fill="#000000" fill-rule="nonzero" id="path2870" d="m65.618652,121.423431c0,1.26561 -1.026001,2.291595 -2.291595,2.291595c-1.265594,0 -2.291595,-1.025986 -2.291595,-2.291595c0,-1.265594 1.026001,-2.29158 2.291595,-2.29158c1.265594,0 2.291595,1.025986 2.291595,2.29158z"/>
    <path fill="#000000" fill-rule="nonzero" id="path2872" d="m73.548553,116.190773c0,1.265602 -1.02597,2.291588 -2.291595,2.291588c-1.265594,0 -2.291565,-1.025986 -2.291565,-2.291588c0,-1.26561 1.02597,-2.29158 2.291565,-2.29158c1.265625,0 2.291595,1.02597 2.291595,2.29158z"/>
    <path fill="#000000" fill-rule="nonzero" id="path2874" d="m79.482513,109.879211c0,1.26561 -1.026001,2.291588 -2.291595,2.291588c-1.265594,0 -2.291595,-1.025978 -2.291595,-2.291588c0,-1.26561 1.026001,-2.29158 2.291595,-2.29158c1.265594,0 2.291595,1.02597 2.291595,2.29158z"/>
    <path fill="#000000" fill-rule="nonzero" id="path2876" d="m83.852051,102.920311c0,1.26561 -1.02597,2.291588 -2.291595,2.291588c-1.265594,0 -2.291565,-1.025978 -2.291565,-2.291588c0,-1.265602 1.02597,-2.29158 2.291565,-2.29158c1.265625,0 2.291595,1.025978 2.291595,2.29158z"/>
    <path fill="#000000" fill-rule="nonzero" id="path2878" d="m86.603241,95.260117c0,1.26561 -1.02597,2.29158 -2.291595,2.29158c-1.265594,0 -2.291565,-1.02597 -2.291565,-2.29158c0,-1.26561 1.02597,-2.29158 2.291565,-2.29158c1.265625,0 2.291595,1.02597 2.291595,2.29158z"/>
    <path fill="#000000" fill-rule="nonzero" id="path2880" d="m87.951874,87.599937c0,1.26561 -1.026001,2.291595 -2.291595,2.291595c-1.265594,0 -2.291595,-1.025986 -2.291595,-2.291595c0,-1.265594 1.026001,-2.29158 2.291595,-2.29158c1.265594,0 2.291595,1.025986 2.291595,2.29158z"/>
    <path fill="#000000" fill-rule="nonzero" id="path2882" d="m87.790009,79.670029c0,1.26561 -1.02597,2.29158 -2.291565,2.29158c-1.265594,0 -2.291595,-1.02597 -2.291595,-2.29158c0,-1.26561 1.026001,-2.291588 2.291595,-2.291588c1.265594,0 2.291565,1.025978 2.291565,2.291588z"/>
    <path fill="#000000" fill-rule="nonzero" id="path2884" d="m85.901947,71.686172c0,1.26561 -1.02597,2.291588 -2.291565,2.291588c-1.265625,0 -2.291595,-1.025978 -2.291595,-2.291588c0,-1.265602 1.02597,-2.29158 2.291595,-2.29158c1.265594,0 2.291565,1.025978 2.291565,2.29158z"/>
    <path fill="#000000" fill-rule="nonzero" id="path2886" d="m82.881042,64.996986c0,1.265617 -1.026001,2.291595 -2.291595,2.291595c-1.265594,0 -2.291595,-1.025978 -2.291595,-2.291595c0,-1.265594 1.026001,-2.29158 2.291595,-2.29158c1.265594,0 2.291595,1.025986 2.291595,2.29158z"/>
    <path fill="#000000" fill-rule="nonzero" id="path2888" d="m78.187836,58.41571c0,1.26561 -1.026001,2.29158 -2.291595,2.29158c-1.265594,0 -2.291595,-1.02597 -2.291595,-2.29158c0,-1.26561 1.026001,-2.291588 2.291595,-2.291588c1.265594,0 2.291595,1.025978 2.291595,2.291588z"/>
    <path fill="#000000" fill-rule="nonzero" id="path2890" d="m72.901215,53.236992c0,1.26561 -1.02597,2.291588 -2.291595,2.291588c-1.265594,0 -2.291565,-1.025978 -2.291565,-2.291588c0,-1.265602 1.02597,-2.29158 2.291565,-2.29158c1.265625,0 2.291595,1.025978 2.291595,2.29158z"/>
    <path fill="#000000" fill-rule="nonzero" id="path2892" d="m66.319916,48.975342c0,1.26561 -1.02597,2.291588 -2.291565,2.291588c-1.265625,0 -2.291595,-1.025978 -2.291595,-2.291588c0,-1.265602 1.02597,-2.29158 2.291595,-2.29158c1.265594,0 2.291565,1.025978 2.291565,2.29158z"/>
    <path fill="#000000" fill-rule="nonzero" id="path2894" d="m59.199188,46.062309c0,1.26561 -1.02597,2.291592 -2.291565,2.291592c-1.265625,0 -2.291595,-1.025982 -2.291595,-2.291592c0,-1.265598 1.02597,-2.29158 2.291595,-2.29158c1.265594,0 2.291565,1.025982 2.291565,2.29158z"/>
    <path fill="#000000" fill-rule="nonzero" id="path2896" d="m51.970551,44.605801c0,1.26561 -1.02597,2.29158 -2.291565,2.29158c-1.265594,0 -2.291595,-1.02597 -2.291595,-2.29158c0,-1.26561 1.026001,-2.291592 2.291595,-2.291592c1.265594,0 2.291565,1.025982 2.291565,2.291592z"/>
    <path fill="none" stroke="#000000" stroke-width="0.9" stroke-miterlimit="4" stroke-dashoffset="0" id="path2898" d="m77.536224,84.526863c0,18.327286 -14.857208,33.184471 -33.184479,33.184471c-18.327301,0 -33.184509,-14.857185 -33.184509,-33.184471c0,-18.327301 14.857208,-33.184513 33.184509,-33.184513c18.327271,0 33.184479,14.857212 33.184479,33.184513z"/>
    <path fill="none" stroke="#000000" stroke-width="2.827536" stroke-miterlimit="4" stroke-dashoffset="0" id="path2900" d="m82.925903,84.757393c0,21.019257 -17.03949,38.058723 -38.058746,38.058723c-21.019257,0 -38.058716,-17.039467 -38.058716,-38.058723c0,-21.019257 17.039459,-38.058723 38.058716,-38.058723c21.019257,0 38.058746,17.039482 38.058746,38.058731l0,-0.000008z"/>
    <path fill="none" stroke="#000000" stroke-width="0.305544px" id="path2902" d="m32.336121,53.553238l-3.433044,-2.937157l0.267029,4.462952l-3.318604,-2.746433l0.267029,4.272228l-3.089722,-2.593857l0.648468,4.310356l-3.318604,-1.945374l1.106201,3.814484l-4.195923,-1.106194l1.830933,3.471176l-3.928925,-0.801041l1.983521,3.54747l-4.348511,-0.610336l2.593842,3.35675l-4.119659,0l2.670135,2.288696l-4.005219,0.724739l2.746429,2.250565l-4.119629,1.258774l3.013428,2.403122l-3.509338,1.792809l3.24231,1.602081l-4.119659,2.212395l3.204163,0.610336l-3.35675,2.937149l3.73819,0.457741l-3.35675,3.20417l4.119659,0.19072l-3.547485,3.24231l4.119629,-0.076286l-3.24231,3.05159l4.539246,0.076286l-3.013458,3.127884l4.119629,-0.457756l-2.822723,4.119652l4.501099,-1.449516l-2.593842,4.729965l4.348511,-1.907234l-1.602081,5.531006l4.310364,-2.517563l-1.258789,5.569153l4.462952,-2.784576l-0.801025,5.492867l3.928925,-3.127876l-0.343292,5.759865l3.890778,-3.89077l0.724762,5.607292l3.585632,-3.967064l1.029907,5.607292l3.089722,-4.53923l1.563934,5.263992l2.326843,-4.958832l2.517548,5.263977l1.602081,-5.22583l2.555695,4.882538l1.449493,-5.531006l3.280457,4.577393l0.686615,-5.454727l3.73819,4.157806l0.152588,-5.6073l3.967072,3.814484l-0.305145,-5.9506l4.157776,3.356743l-0.877319,-5.454697l3.890778,2.975304l-1.068054,-5.75988l4.501099,2.21241l-1.602081,-5.6073l4.61554,1.830956l-2.441284,-5.035126l4.844391,1.525795l-3.280457,-4.958832l5.073273,0.457741l-3.700043,-3.890778l4.539246,-0.228867l-3.814484,-3.433037l4.806244,-1.258774l-4.310364,-2.937164l4.577393,-1.182495l-4.195923,-2.17424l4.23407,-1.182495l-4.691833,-1.640228l4.157776,-2.593857l-5.11142,-0.419586l3.852631,-2.86087l-4.23407,0l4.157776,-2.89901l-5.340271,0.15258l3.433044,-3.661903l-4.958832,1.22065l3.35675,-3.77636l-4.844391,0.457756l2.212402,-4.386673l-4.577393,1.792816l1.754669,-4.996971l-4.005219,2.403122l1.144348,-5.111404l-3.967072,2.975288l0.266998,-5.569157l-3.375824,3.37582l-0.644562,-5.611961l-3.937988,3.074867l-0.809174,-5.016888l-3.020935,3.830101l-0.647339,-4.693222l-2.805145,4.15377l-1.456512,-4.747158l-1.672302,4.099819l-2.103851,-4.58532l-1.402557,4.58532l-2.805145,-4.045872l-0.377625,4.31559l-3.614319,-3.614307l-0.21579,4.53138l-3.344604,-3.290642l-0.49469,4.439739l0.000153,-0.000008l0,0.000008z"/>
    <path fill="#000000" fill-rule="nonzero" stroke="#000000" stroke-width="0.9" stroke-miterlimit="4" stroke-dashoffset="0" id="path2904" d="m47.365173,83.687668c0,1.411469 -1.144226,2.55571 -2.555695,2.55571c-1.411469,0 -2.555695,-1.144241 -2.555695,-2.55571c0,-1.411469 1.144226,-2.555695 2.555695,-2.555695c1.411469,0 2.555695,1.144226 2.555695,2.555695z"/>
    <path fill="#000000" fill-rule="evenodd" stroke="#000000" stroke-width="0.34863px" id="path2906" d="m43.68631,85.873627l0.81131,0.010086c0,0 -1.193115,11.455391 -4.748322,43.972458l-4.152527,-0.080597"/>
    <path fill="#000000" fill-rule="evenodd" stroke="#000000" stroke-width="0.352735px" id="path2908" d="m45.35553,85.835403l-0.830597,0.010063c0,0 1.716278,13.76358 5.286621,44.120949l3.825897,-0.233124"/>
   </g>
  </g>
  <g id="svg_62">
   <g id="svg_4">
    <path id="svg_5" fill="#000000" fill-rule="evenodd" stroke="#000000" stroke-width="0.123348" stroke-miterlimit="4" d="m267.95752,122.064758l0,-39.619751l0.691528,0l0,-9.741974l-1.329956,0l0,-1.576294l-0.611816,0l-1.808868,-3.322266l0,-3.031311l-1.953491,-6.858322l-0.013062,-1.272812l0,1.272598l-2.119781,6.858337l0,3.031296l-1.808868,3.322327l-0.611755,0l0,1.576294l-1.330048,0l0,9.741943l0.69162,0l0,39.625793l10.204865,-0.005768l-0.000366,-0.000092z"/>
    <path id="svg_6" fill="#ffffff" fill-rule="nonzero" d="m265.696289,77.357849c0.00116,1.897339 -1.38382,3.436127 -3.092712,3.436127c-1.708893,0 -3.093872,-1.538788 -3.092712,-3.436127c-0.00116,-1.897369 1.38382,-3.436188 3.092712,-3.436188c1.708893,0 3.093872,1.538818 3.092712,3.436188z"/>
   </g>
   <path id="svg_7" fill="#000000" fill-rule="evenodd" d="m246.609955,104.182129l16.702118,-0.053741l0,17.938568l-16.736786,0.053772l0.034668,-17.938599l0,0z"/>
   <path id="svg_8" fill="#000000" fill-rule="evenodd" d="m141.458496,68.214386l-2.367432,3.58432l-0.107849,-11.789856l-1.504517,-2.256073l-1.944946,2.183319l-0.029083,54.625854l19.48941,-6.978485l0,6.998688l0.029053,-54.391586l-1.608795,-2.650223l-1.894226,2.470123l0,11.836029l-2.283539,-3.571564l-2.10675,-0.00589l-0.049591,-3.370453l-1.858582,-2.961151l-1.832184,3.033112l0.004028,3.246033l-1.935028,-0.002197l0.000031,0z"/>
   <path id="svg_9" fill="#000000" fill-rule="evenodd" stroke="#000000" stroke-width="0.018123" stroke-miterlimit="4" d="m191.838318,108.574524l0,-15.563141l-1.938507,-5.382233l0,-4.357056c0,0 -3.27121,-7.931213 -3.400482,-13.441589c-0.055054,-0.200256 -0.070007,-0.206512 -0.120819,-0.007507c-0.129242,5.510376 -3.386322,13.447601 -3.386322,13.447601l0,4.357025l-1.938477,4.254211l0,16.691223"/>
   <path id="svg_10" fill="#000000" fill-rule="evenodd" stroke="#000000" stroke-width="0.205844px" d="m175.736084,126.860657l-11.188232,0l0,-35.223938l1.451782,-3.257843l1.136047,3.238525l0.014832,3.334198l6.123413,0l0,-3.620453l1.205505,-2.940063l1.243317,2.996307l0.013306,35.473267l0.000031,0z"/>
   <path id="svg_11" fill="#000000" fill-rule="evenodd" stroke="#000000" stroke-width="0.205844px" d="m215.305542,126.878845l-11.188202,0l0,-35.223938l1.451813,-3.257813l1.136047,3.238495l0.014801,3.334198l6.123444,0l0,-3.620422l1.205444,-2.940094l1.243347,2.996307l0.013306,35.473267z"/>
   <g id="svg_18" display="inline">
    <path id="svg_19" fill="#000000" fill-rule="evenodd" stroke="#000000" stroke-width="1px" d="m251.397583,126.866821l-9.292908,0l0,-35.223938l1.205872,-3.257813l0.943604,3.238495l0.012238,3.334198l5.086121,0l0,-3.620453l1.001251,-2.940063l1.032745,2.996307l0.010986,35.473267l0.000092,0z"/>
    <path id="svg_20" fill="#000000" fill-rule="evenodd" stroke="#000000" stroke-width="1px" d="m236.177094,126.869751l-9.292938,0l0,-35.223938l1.205872,-3.257813l0.943604,3.238525l0.012238,3.334198l5.08609,0l0,-3.620453l1.001282,-2.940094l1.032745,2.996307l0.011017,35.473267l0.000092,0z"/>
    <path id="svg_21" fill="#000000" fill-rule="evenodd" stroke="#000000" stroke-width="0.234494" stroke-miterlimit="4" d="m237.651184,100.961426l0.028076,0.262787c0.249268,0.184662 0.276123,0.643127 0.270294,0.645966l-0.008423,2.784454l-0.599915,0.004456l-0.008301,-2.789032c-0.00589,-0.002808 0.021027,-0.461273 0.270325,-0.645935l0.016876,-0.262787l0.031067,0.000092z"/>
    <path id="svg_22" fill="#000000" fill-rule="evenodd" stroke="#000000" stroke-width="1.835923px" d="m230.672913,104.772095l17.138611,0l-0.39389,22.011688l-16.87674,0.009003l0.132019,-22.020691l0,0z"/>
    <path id="svg_23" fill="#000000" fill-rule="evenodd" stroke="#000000" stroke-width="0.234494" stroke-miterlimit="4" d="m240.876709,100.961426l0.028076,0.262787c0.249268,0.184662 0.276123,0.643127 0.270294,0.645966l-0.00827,2.784454l-0.599945,0.004456l-0.008423,-2.789032c-0.00589,-0.002808 0.020996,-0.461273 0.270264,-0.645935l0.016937,-0.262787l0.031036,0.000092l0.000031,0z"/>
   </g>
   <g id="svg_37" display="inline">
    <path id="svg_38" fill="#000000" fill-rule="evenodd" stroke="#000000" stroke-width="0.235952" stroke-miterlimit="4" d="m151.672119,103.91803l0.051636,0.262817c0.458893,0.184631 0.508301,0.643127 0.497589,0.645935l-0.015381,2.784485l-1.10437,0.004425l-0.015381,-2.789001c-0.010681,-0.002838 0.038727,-0.461304 0.49762,-0.645966l0.031158,-0.262756l0.057129,0.000061l0,0z"/>
    <path id="svg_39" fill="#000000" fill-rule="evenodd" stroke="#000000" stroke-width="0.235952" stroke-miterlimit="4" d="m158.188141,103.91803l0.051605,0.262817c0.458923,0.184631 0.508362,0.643127 0.49762,0.645935l-0.015381,2.784485l-1.10437,0.004425l-0.015381,-2.789001c-0.010712,-0.002838 0.038696,-0.461304 0.49762,-0.645966l0.031158,-0.262756l0.057129,0.000061l0,0z"/>
    <path id="svg_40" fill="#000000" fill-rule="evenodd" stroke="#000000" stroke-width="0.235952" stroke-miterlimit="4" d="m164.833984,103.91803l0.051636,0.262817c0.458923,0.184631 0.508331,0.643127 0.497589,0.645935l-0.01535,2.784485l-1.104401,0.004425l-0.015411,-2.789001c-0.010712,-0.002838 0.038727,-0.461304 0.49762,-0.645966l0.031219,-0.262756l0.057098,0.000061l0,0z"/>
    <path id="svg_41" fill="#000000" fill-rule="evenodd" stroke="#000000" stroke-width="0.235952" stroke-miterlimit="4" d="m171.349976,103.91803l0.051666,0.262817c0.458923,0.184631 0.508301,0.643127 0.497589,0.645935l-0.01535,2.784485l-1.10437,0.004425l-0.015381,-2.789001c-0.010712,-0.002838 0.038696,-0.461304 0.49762,-0.645966l0.031128,-0.262756l0.057159,0.000061l-0.000061,0z"/>
    <path id="svg_42" fill="#000000" fill-rule="evenodd" stroke="#000000" stroke-width="0.235952" stroke-miterlimit="4" d="m177.95166,103.991302l0.051666,0.262787c0.458862,0.184662 0.508301,0.643158 0.497589,0.645935l-0.015411,2.784485l-1.10434,0.004456l-0.015411,-2.789001c-0.010681,-0.002808 0.038727,-0.461304 0.49762,-0.645935l0.031189,-0.262817l0.057098,0.000092l0,0z"/>
    <path id="svg_43" fill="#000000" fill-rule="evenodd" stroke="#000000" stroke-width="0.235952" stroke-miterlimit="4" d="m184.467682,103.991302l0.051666,0.262787c0.458893,0.184662 0.508362,0.643158 0.497559,0.645935l-0.015381,2.784485l-1.104309,0.004456l-0.015411,-2.789001c-0.010712,-0.002808 0.038727,-0.461304 0.497589,-0.645935l0.03125,-0.262817l0.057037,0.000092l0,0z"/>
    <path id="svg_44" fill="#000000" fill-rule="evenodd" stroke="#000000" stroke-width="0.235952" stroke-miterlimit="4" d="m191.113525,103.991302l0.051636,0.262787c0.458923,0.184662 0.508362,0.643158 0.49762,0.645935l-0.015381,2.784485l-1.104401,0.004456l-0.01535,-2.789001c-0.010742,-0.002808 0.038696,-0.461304 0.497559,-0.645935l0.031219,-0.262817l0.057098,0.000092l0,0z"/>
    <path id="svg_45" fill="#000000" fill-rule="evenodd" stroke="#000000" stroke-width="0.235952" stroke-miterlimit="4" d="m197.629517,103.991302l0.051666,0.262787c0.458923,0.184662 0.508301,0.643158 0.49762,0.645935l-0.015381,2.784485l-1.10437,0.004456l-0.015381,-2.789001c-0.010742,-0.002808 0.038696,-0.461304 0.49762,-0.645935l0.031189,-0.262817l0.057098,0.000092l-0.000061,0z"/>
    <path id="svg_46" fill="#000000" fill-rule="evenodd" stroke="#000000" stroke-width="0.235952" stroke-miterlimit="4" d="m204.549896,103.845764l0.051636,0.262787c0.458862,0.184662 0.50827,0.643127 0.497589,0.645935l-0.01535,2.784485l-1.104401,0.004425l-0.015411,-2.789001c-0.01062,-0.002808 0.038757,-0.461273 0.49762,-0.645935l0.031219,-0.262817l0.057098,0.000122l0,0z"/>
    <path id="svg_47" fill="#000000" fill-rule="evenodd" stroke="#000000" stroke-width="0.235952" stroke-miterlimit="4" d="m211.195679,103.845764l0.051697,0.262787c0.458893,0.184662 0.508301,0.643127 0.497559,0.645935l-0.015381,2.784485l-1.104309,0.004425l-0.015381,-2.789001c-0.010742,-0.002808 0.038696,-0.461273 0.497498,-0.645935l0.031219,-0.262817l0.057098,0.000122l0,0z"/>
    <path id="svg_48" fill="#000000" fill-rule="evenodd" stroke="#000000" stroke-width="0.235952" stroke-miterlimit="4" d="m217.711731,103.845764l0.051605,0.262787c0.458954,0.184662 0.508362,0.643127 0.497589,0.645935l-0.01535,2.784485l-1.10437,0.004425l-0.01535,-2.789001c-0.010681,-0.002808 0.038666,-0.461273 0.49762,-0.645935l0.031067,-0.262817l0.057098,0.000122l0.000092,0z"/>
    <path id="svg_49" fill="#000000" fill-rule="evenodd" stroke="#000000" stroke-width="1.139915px" d="m135.898804,107.515198l97.337402,0l0,19.349884l-97.694336,0l0.356934,-19.349884z"/>
   </g>
  </g>
 </g>
 <g>
  <title>Layer 2</title>
 </g>
</svg>